<svg xmlns="http://www.w3.org/2000/svg" version="1.1" xmlns:xlink="http://www.w3.org/1999/xlink" xmlns:svgjs="http://svgjs.dev/svgjs" viewBox="0 0 1920 1080"><rect width="1920" height="1080" fill="#8000ff"></rect><g transform="matrix(1.15,0,0,1.15,-139.79765624999982,-81)"><path d="M0,-1080C-9.15017762395201,-987.9538212909953,-64.5729009641545,-745.9239305129473,-54.90106574371205,-527.7229277459717C-45.229230523269614,-309.521924978996,48.03363531220494,8.839036260207735,58.03101132265465,229.206016601854C68.02838733310435,449.57299694350024,17.98600155696792,599.1025680001491,5.083190318986169,794.478954303906C-7.819620918995582,989.8553406076629,-18.538657718738165,1173.8774934750463,-19.38585610523586,1401.4643344243952C-20.233054491733554,1629.0511753737442,-3.23097601753931,2033.5773890707326,0,2160L 1920 2160 L 1920 -1080 Z" fill="url(&quot;#SvgjsLinearGradient1006&quot;)"></path><path d="M320,-1080C339.10409091737085,-1011.2197650335704,434.2783942496235,-827.7933192849093,434.6245455042251,-667.3185902014226C434.97069675882676,-506.84386111793583,358.6522435712072,-290.7652240200133,322.0769075276098,-117.15162549907944C285.50157148401246,56.46197302185439,227.14061839482395,216.76766706214516,215.17252924264085,374.36300092418037C203.20444009045775,531.9583347862156,236.98046059196486,698.4150749664991,250.26837261451118,828.4203776731317C263.5562846370575,958.4256803797643,303.0969304118305,1001.5508663953896,294.9000013779188,1154.3948171639763C286.70307234400707,1307.2387679325632,196.9034653073607,1577.8832184786486,201.08679841104092,1745.4840822846525C205.27013151472113,1913.0849460906563,300.1811330685068,2090.914013714109,320,2160L 1920 2160 L 1920 -1080 Z" fill="url(&quot;#SvgjsLinearGradient1007&quot;)"></path><path d="M640,-1080C656.368373329897,-1026.9189638065664,742.7275107896108,-916.5512335558137,738.2102399793824,-761.5137828393975C733.692969169154,-606.4763321229814,641.2523745971557,-281.0641820332313,612.8963751386293,-149.77529570150278C584.5403756801029,-18.486409369774236,556.88699468884,-73.8325035079852,568.0742432282243,26.219535150973712C579.2614917676086,126.27157380993262,675.5403404166179,318.4658539097298,680.0198663749354,450.53693625225065C684.4993923332529,582.6080185947715,613.5998179015636,682.2622462706283,594.9513989781292,818.6460292060989C576.3029800546948,955.0298121415694,546.866194072655,1101.8684243795815,568.1293528343291,1268.8396338650737C589.3925115960031,1435.8108433505658,710.551910353895,1671.946558429897,722.5303515481735,1820.4732861190514C734.508792742452,1969.0000138082057,653.7550585913623,2103.4122143531754,640,2160L 1920 2160 L 1920 -1080 Z" fill="url(&quot;#SvgjsLinearGradient1008&quot;)"></path><path d="M960,-1080C966.4701407272313,-979.4875653189968,1010.8641492310353,-698.8365442031916,998.8208443633877,-476.9253919139802C986.77753949574,-255.0142396247688,904.448703732974,35.18937464755837,887.7401707941144,251.46691373526835C871.0316378552549,467.74445282297836,897.155304260207,621.1154022093497,898.5696467302304,820.7398426122796C899.9839892002537,1020.3642830152096,885.9878334026266,1226.0035299215613,896.2262256142549,1449.213556152848C906.4646178258831,1672.4235823841348,949.3710376023758,2041.5355926921413,960,2160L 1920 2160 L 1920 -1080 Z" fill="url(&quot;#SvgjsLinearGradient1009&quot;)"></path><path d="M1280,-1080C1264.1891964995523,-997.3973921723054,1197.578066960675,-733.7053478529587,1185.1351789973137,-584.3843530338327C1172.6922910339524,-435.0633582147067,1197.3957490425237,-312.1497718648609,1205.342672219832,-184.07403108524386C1213.2895953971401,-55.998290305626824,1213.6353495856924,57.25823016780474,1232.8167180611626,184.0700916438696C1251.9980865366329,310.88195311993445,1332.3906405528087,469.678448697035,1320.4308830726534,576.7971377711453C1308.471125592498,683.9158268452557,1179.4531926226043,713.1039288346884,1161.0581731802308,826.7822260885316C1142.6631537378573,940.4605233423748,1185.290798697168,1117.0283086470322,1210.0607664184126,1258.8669212942043C1234.8307341396574,1400.7055339413764,1298.0214405774348,1527.625055520599,1309.6779795076993,1677.813901971565C1321.3345184379639,1828.0027484225309,1284.94632991795,2079.6356503285942,1280,2160L 1920 2160 L 1920 -1080 Z" fill="url(&quot;#SvgjsLinearGradient1010&quot;)"></path><path d="M1600,-1080C1609.788480520841,-986.3399706491687,1657.3379529218753,-731.3045361335709,1658.7308831250455,-518.0398238950118C1660.1238133282156,-304.7751116564526,1636.859511128798,-13.34849309548872,1608.357581219021,199.58827343135485C1579.8556513092442,412.5250399581984,1483.5723451262004,535.4776542129098,1487.719303666384,759.5807752660496C1491.8662622065674,983.6838963191894,1614.5258830711857,1310.803795627869,1633.2393324601217,1544.206999750194C1651.9527818490576,1777.610203872519,1605.5398887433537,2057.367833291699,1600,2160L 1920 2160 L 1920 -1080 Z" fill="url(&quot;#SvgjsLinearGradient1011&quot;)"></path></g><defs><linearGradient x1="0.1" y1="0" x2="0" y2="1" id="SvgjsLinearGradient1006"><stop stop-color="#8000ff" offset="0"></stop><stop stop-color="#5600ff" offset="0"></stop></linearGradient><linearGradient x1="0.1" y1="0" x2="0" y2="1" id="SvgjsLinearGradient1007"><stop stop-color="#a54bff" offset="0"></stop><stop stop-color="#874bff" offset="0.16666666666666666"></stop></linearGradient><linearGradient x1="0.1" y1="0" x2="0" y2="1" id="SvgjsLinearGradient1008"><stop stop-color="#cb96ff" offset="0"></stop><stop stop-color="#b996ff" offset="0.3333333333333333"></stop></linearGradient><linearGradient x1="0.1" y1="0" x2="0" y2="1" id="SvgjsLinearGradient1009"><stop stop-color="#f0e1ff" offset="0"></stop><stop stop-color="#ebe1ff" offset="0.5"></stop></linearGradient><linearGradient x1="0.1" y1="0" x2="0" y2="1" id="SvgjsLinearGradient1010"><stop stop-color="#ffffff" offset="0"></stop><stop stop-color="#ffffff" offset="0.6666666666666666"></stop></linearGradient><linearGradient x1="0.1" y1="0" x2="0" y2="1" id="SvgjsLinearGradient1011"><stop stop-color="#ffffff" offset="0"></stop><stop stop-color="#ffffff" offset="0.8333333333333334"></stop></linearGradient></defs></svg>