<svg xmlns="http://www.w3.org/2000/svg" version="1.1" xmlns:xlink="http://www.w3.org/1999/xlink" xmlns:svgjs="http://svgjs.dev/svgjs" viewBox="0 0 1920 1080"><rect width="1920" height="1080" fill="#8000ff"></rect><g transform="matrix(-2.112515728529184e-16,-1.15,1.15,-2.112515728529184e-16,307.4746093750002,1607.7458007812502)"><path d="M0,-1080C-8.930535710393139,-1007.6742121197732,-60.4454480888373,-791.0873346375971,-53.58321426235884,-646.0452727186389C-46.72098043588037,-501.0032107996807,42.73062875171719,-363.6958105958944,41.17340295887078,-209.74762848625045C39.61617716602437,-55.79944637660654,-67.20105477141655,111.83994562842247,-62.92656901943731,277.6438199392246C-58.65208326745807,443.44769425002676,50.235482526559395,626.1169761068728,66.82031747074623,785.0756173785625C83.40515241493307,944.0342586502521,52.48997141201708,1079.1503525104497,36.58244064568375,1231.3956675693628C20.674909879350416,1383.6409826282759,-22.527793686306474,1543.7801189936013,-28.624867127253765,1698.547507732041C-34.721940568201056,1853.3148964704806,-4.770811187875627,2083.0912512886734,0,2160L 1920 2160 L 1920 -1080 Z" fill="url(&quot;#SvgjsLinearGradient1258&quot;)"></path><path d="M213.33333333333331,-1080C210.03886508301701,-982.7722756918436,189.57671157295948,-674.9814676431597,193.56652383143552,-496.633654151061C197.55633608991155,-318.28584065896234,224.64942858409069,-175.7379852935527,237.27220688418956,-9.913119047407946C249.89498518428843,155.9117471987368,284.74721365635764,317.2501668725283,269.30319363202875,498.3155433258074C253.85917360769986,679.3809197790865,164.91034674190485,878.7316000246617,144.60808673821623,1076.4791396722665C124.3058267345276,1274.2266793198712,136.03542584404414,1504.2139711568136,147.489633609897,1684.8007812114358C158.94384137574986,1865.387591266058,202.35938337942727,2080.800130201906,213.33333333333331,2160L 1920 2160 L 1920 -1080 Z" fill="url(&quot;#SvgjsLinearGradient1259&quot;)"></path><path d="M426.66666666666663,-1080C431.47593381028514,-1020.5635393336134,461.0699969260186,-848.8034427990204,455.52226952837765,-723.3812360016809C449.9745421307367,-597.9590292043414,407.36992640220456,-465.98220576761196,393.3803022808211,-327.4667592159629C379.3906781594377,-188.95131266431383,374.42506580823016,-36.09160850325645,371.584524800077,107.71144330821349C368.7439837919239,251.51449511968343,376.772963461976,403.36030216158264,376.3370562319022,535.3515516528568C375.90114900182834,667.3428011441308,370.6815514187714,771.5842619899911,368.9690814196339,899.6589402558582C367.25661142049637,1027.7336185217252,345.8296123288203,1153.8422790127602,366.06223623707695,1303.7996212480593C386.2948601453336,1453.7569634833585,480.2640864642422,1656.70293054233,490.36482486917384,1799.4029936676534C500.4655632741055,1942.1030567929768,437.2830263670845,2099.900498944609,426.66666666666663,2160L 1920 2160 L 1920 -1080 Z" fill="url(&quot;#SvgjsLinearGradient1260&quot;)"></path><path d="M640,-1080C633.6050966445786,-983.8609290133326,611.9382477576349,-681.8623859038094,601.6305798674713,-503.1655740799955C591.3229119773076,-324.46876225618166,570.8651678114422,-184.41250298335467,578.1539926590182,-7.819129057116697C585.4428175065941,168.77424486912128,626.7765851034412,380.97094382132866,645.3635289529267,556.3946694774324C663.9504728024122,731.8183951335362,699.8848712315674,867.5861300632024,689.6756557559312,1044.723224879506C679.4664402802949,1221.8603196958097,592.387512058431,1433.3377758551717,584.108236099109,1619.217238375254C575.8289601397871,1805.0967008953364,630.6847060165181,2069.869539729209,640,2160L 1920 2160 L 1920 -1080 Z" fill="url(&quot;#SvgjsLinearGradient1261&quot;)"></path><path d="M853.3333333333333,-1080C858.8448180363702,-1000.2011986372579,875.801286332407,-777.2416685270548,886.4022415515545,-601.2071918235475C897.0031967707021,-425.17271512004027,933.666159763413,-213.91874815550196,916.9390646482183,-23.793139778956167C900.2119695330235,166.3324685975896,800.8277154782007,358.320693552918,786.039670860386,539.5464584357272C771.2516262425712,720.7722233185365,826.9712128275323,873.0177054461725,828.2107969413295,1063.5614495178995C829.4503810551266,1254.1051935896264,789.2900861445014,1500.0691644524059,793.4771755431688,1682.8089228660892C797.6642649418361,1865.5486812797726,843.3573070349726,2080.468153811015,853.3333333333333,2160L 1920 2160 L 1920 -1080 Z" fill="url(&quot;#SvgjsLinearGradient1262&quot;)"></path><path d="M1066.6666666666667,-1080C1057.0325702652929,-1009.3318518663493,1001.8409116431184,-795.6566663860604,1008.8620882584239,-655.9911111980963C1015.8832648737294,-516.3255560101322,1108.7175532846318,-384.4822188332595,1108.7937263585,-242.0066688722158C1108.8698994323681,-99.53111891117217,1017.7154086672915,67.15982177730967,1009.3191267016332,198.86218856816566C1000.9228447359749,330.56455535902165,1052.738871177298,433.6846659847495,1058.4160345645503,548.2075318729202C1064.0931979518025,662.7303977610909,1033.4790947810461,755.6893921341161,1043.382107025147,885.9993838971899C1053.2851192692478,1016.3093756602636,1114.336394811869,1189.2125097258438,1117.8341080291557,1330.0674824513626C1121.3318212464424,1470.9224551768814,1072.8962932226154,1592.8071339921962,1064.3683863288672,1731.1292202503025C1055.840479435119,1869.4513065084088,1066.2836199437002,2088.521536708384,1066.6666666666667,2160L 1920 2160 L 1920 -1080 Z" fill="url(&quot;#SvgjsLinearGradient1263&quot;)"></path><path d="M1280,-1080C1269.3386747254394,-977.3379530091222,1215.0091076521667,-683.4660906085434,1216.0320483526364,-464.02771805473344C1217.054989053106,-244.58934550092354,1286.1034349035783,18.473726246682872,1286.1376442028184,236.63023532285942C1286.1718535020584,454.78674439903597,1217.7985644957437,638.2810208909402,1216.2373041480769,844.9113364023258C1214.67604380041,1051.5416519137113,1266.1429661414966,1257.2306844582272,1276.770082116817,1476.412128391173C1287.3971980921376,1695.5935723241187,1279.461680352803,2046.0686880651956,1280,2160L 1920 2160 L 1920 -1080 Z" fill="url(&quot;#SvgjsLinearGradient1264&quot;)"></path><path d="M1493.3333333333333,-1080C1488.0848263204844,-949.162294109883,1463.5320694106047,-555.2093604667928,1461.8422912562403,-294.9737646592975C1460.152513101876,-34.73816885180224,1484.3439301210356,201.10937274175427,1483.1946644071465,481.41357484497144C1482.0453986932575,761.7177769481887,1453.2569188185425,1107.0870437675005,1454.946696972907,1386.8514479600053C1456.6364751272713,1666.6158521525101,1486.9355606065956,2031.1419079933341,1493.3333333333333,2160L 1920 2160 L 1920 -1080 Z" fill="url(&quot;#SvgjsLinearGradient1265&quot;)"></path><path d="M1706.6666666666665,-1080C1709.310556463599,-968.2384238025162,1732.860958734874,-624.0953137465615,1722.5300054482611,-409.430542815097C1712.1990521616483,-194.76577188363254,1644.6211074184098,-8.88093112900637,1644.6809469469895,207.98862558878676C1644.7407864755692,424.8581823065799,1703.1819191094346,684.7059824881304,1722.889042619739,891.7867974916618C1742.5961661300435,1098.867612495193,1765.6274173343286,1239.1046485252518,1762.9236880088165,1450.4735156099748C1760.2199586833044,1661.8423826946978,1716.042836890358,2041.7455859349957,1706.6666666666665,2160L 1920 2160 L 1920 -1080 Z" fill="url(&quot;#SvgjsLinearGradient1266&quot;)"></path></g><defs><linearGradient x1="0.1" y1="0" x2="0" y2="1" id="SvgjsLinearGradient1258"><stop stop-color="#8000ff" offset="0"></stop><stop stop-color="#5600ff" offset="0"></stop></linearGradient><linearGradient x1="0.1" y1="0" x2="0" y2="1" id="SvgjsLinearGradient1259"><stop stop-color="#9932ff" offset="0"></stop><stop stop-color="#7732ff" offset="0.1111111111111111"></stop></linearGradient><linearGradient x1="0.1" y1="0" x2="0" y2="1" id="SvgjsLinearGradient1260"><stop stop-color="#b264ff" offset="0"></stop><stop stop-color="#9864ff" offset="0.2222222222222222"></stop></linearGradient><linearGradient x1="0.1" y1="0" x2="0" y2="1" id="SvgjsLinearGradient1261"><stop stop-color="#cb96ff" offset="0"></stop><stop stop-color="#b996ff" offset="0.3333333333333333"></stop></linearGradient><linearGradient x1="0.1" y1="0" x2="0" y2="1" id="SvgjsLinearGradient1262"><stop stop-color="#e4c8ff" offset="0"></stop><stop stop-color="#dbc8ff" offset="0.4444444444444444"></stop></linearGradient><linearGradient x1="0.1" y1="0" x2="0" y2="1" id="SvgjsLinearGradient1263"><stop stop-color="#fcfaff" offset="0"></stop><stop stop-color="#fbfaff" offset="0.5555555555555556"></stop></linearGradient><linearGradient x1="0.1" y1="0" x2="0" y2="1" id="SvgjsLinearGradient1264"><stop stop-color="#ffffff" offset="0"></stop><stop stop-color="#ffffff" offset="0.6666666666666666"></stop></linearGradient><linearGradient x1="0.1" y1="0" x2="0" y2="1" id="SvgjsLinearGradient1265"><stop stop-color="#ffffff" offset="0"></stop><stop stop-color="#ffffff" offset="0.7777777777777778"></stop></linearGradient><linearGradient x1="0.1" y1="0" x2="0" y2="1" id="SvgjsLinearGradient1266"><stop stop-color="#ffffff" offset="0"></stop><stop stop-color="#ffffff" offset="0.8888888888888888"></stop></linearGradient></defs></svg>